<svg xmlns="http://www.w3.org/2000/svg" style="display:none">
  <symbol id="icon-dog" viewBox="0 0 24 24" fill="none" stroke="currentColor" stroke-width="1.8" stroke-linecap="round" stroke-linejoin="round">
    <path d="M4 12c0-2.2 1.8-4 4-4h8c2.2 0 4 1.8 4 4s-1.8 4-4 4H8c-2.2 0-4-1.8-4-4Z"/>
    <path d="M6 8.5 4 6M18 8.5l2-2.5M6 15.5 4 18M18 15.5l2 2.5"/>
  </symbol>
  <symbol id="icon-pin" viewBox="0 0 24 24" fill="none" stroke="currentColor" stroke-width="1.8" stroke-linecap="round" stroke-linejoin="round">
    <path d="M12 21s7-7.4 7-12a7 7 0 1 0-14 0c0 4.6 7 12 7 12Z"/>
    <circle cx="12" cy="9" r="2.4"/>
  </symbol>
  <symbol id="icon-phone" viewBox="0 0 24 24" fill="none" stroke="currentColor" stroke-width="1.8" stroke-linecap="round" stroke-linejoin="round">
    <path d="M5 4h3l2 5-2.5 1.5a11 11 0 0 0 5 5L14 13l5 2v3a2 2 0 0 1-2 2A16 16 0 0 1 3 6a2 2 0 0 1 2-2Z"/>
  </symbol>
  <symbol id="icon-fb" viewBox="0 0 24 24" fill="currentColor">
    <path d="M22 12a10 10 0 1 0-11.6 9.9v-7H7.9V12h2.5V9.8c0-2.5 1.5-3.9 3.8-3.9 1.1 0 2.2.2 2.2.2v2.5h-1.2c-1.2 0-1.6.8-1.6 1.6V12h2.7l-.4 2.9h-2.3v7A10 10 0 0 0 22 12Z"/>
  </symbol>
  <symbol id="icon-wheelchair" viewBox="0 0 24 24" fill="none" stroke="currentColor" stroke-width="1.8" stroke-linecap="round" stroke-linejoin="round">
    <circle cx="9" cy="4.5" r="1.6" fill="currentColor" stroke="none"/>
    <path d="M9 8v5l4 2.5M9 13H6M13 20a5 5 0 0 1-4.6-7"/>
    <path d="M13.5 15.5 16 20h2"/>
  </symbol>
  <symbol id="icon-clock" viewBox="0 0 24 24" fill="none" stroke="currentColor" stroke-width="1.8" stroke-linecap="round" stroke-linejoin="round">
    <circle cx="12" cy="12" r="9"/>
    <path d="M12 7v5l3.5 2"/>
  </symbol>
  <symbol id="icon-fireworks" viewBox="0 0 24 24" fill="none" stroke="currentColor" stroke-width="1.8" stroke-linecap="round" stroke-linejoin="round">
    <path d="M12 3v4M12 3 9.5 6M12 3l2.5 3M5 9l3 1.5M19 9l-3 1.5"/>
    <circle cx="12" cy="15" r="1" fill="currentColor" stroke="none"/>
    <path d="M12 15v6M12 15 7 19M12 15l5 4M12 15 6 13M12 15l6-2"/>
  </symbol>
  <symbol id="icon-ticket" viewBox="0 0 24 24" fill="none" stroke="currentColor" stroke-width="1.8" stroke-linecap="round" stroke-linejoin="round">
    <path d="M4 8a2 2 0 0 1 2-2h12a2 2 0 0 1 2 2v1.2a1.6 1.6 0 0 0 0 3.2V13.6a1.6 1.6 0 0 0 0 3.2V18a2 2 0 0 1-2 2H6a2 2 0 0 1-2-2v-1.2a1.6 1.6 0 0 0 0-3.2v-2a1.6 1.6 0 0 0 0-3.2Z"/>
    <path d="M14 6v12" stroke-dasharray="2 3"/>
  </symbol>
  <symbol id="icon-car" viewBox="0 0 24 24" fill="none" stroke="currentColor" stroke-width="1.8" stroke-linecap="round" stroke-linejoin="round">
    <path d="M3 13l1.6-4.6A2 2 0 0 1 6.5 7h11a2 2 0 0 1 1.9 1.4L21 13"/>
    <path d="M3 13h18v3a1 1 0 0 1-1 1h-1.5a1.5 1.5 0 0 1-3 0H8.5a1.5 1.5 0 0 1-3 0H4a1 1 0 0 1-1-1Z"/>
  </symbol>
  <symbol id="icon-camera" viewBox="0 0 24 24" fill="none" stroke="currentColor" stroke-width="1.8" stroke-linecap="round" stroke-linejoin="round">
    <path d="M4 8h3l1.5-2h7L17 8h3a1 1 0 0 1 1 1v9a1 1 0 0 1-1 1H4a1 1 0 0 1-1-1V9a1 1 0 0 1 1-1Z"/>
    <circle cx="12" cy="13.5" r="3.5"/>
  </symbol>
  <symbol id="icon-flag-us" viewBox="0 0 24 24" fill="none" stroke="currentColor" stroke-width="1.8" stroke-linecap="round" stroke-linejoin="round">
    <path d="M6 4v16M6 4h13l-2.5 3L19 10H6"/>
  </symbol>
  <symbol id="icon-close" viewBox="0 0 24 24" fill="none" stroke="currentColor" stroke-width="2" stroke-linecap="round">
    <path d="M5 5l14 14M19 5 5 19"/>
  </symbol>
  <symbol id="icon-menu" viewBox="0 0 24 24" fill="none" stroke="currentColor" stroke-width="2" stroke-linecap="round">
    <path d="M4 7h16M4 12h16M4 17h16"/>
  </symbol>
  <symbol id="icon-mail" viewBox="0 0 24 24" fill="none" stroke="currentColor" stroke-width="1.8" stroke-linecap="round" stroke-linejoin="round">
    <rect x="3" y="5" width="18" height="14" rx="2"/>
    <path d="M3 6l9 7 9-7"/>
  </symbol>
</svg>
